# xmcd CD database file
#
# Track frame offsets:
#	150
#	41799
#	58104
#	76247
#	120864
#	145155
#	174259
#	214733
#
# Disc length: 3058 seconds
#
# Revision: 1
# Processed by: cddbd v1.5.2PL0 Copyright (c) Steve Scherf et al.
# Submitted via: CDex 1.70beta2
#
DISCID=650bf008
DTITLE=Kurt Rosenwinkel Standards Trio - Reflections
DYEAR=2009
DGENRE=Jazz
TTITLE0=Reflections
TTITLE1=You Go To My Head
TTITLE2=Fall
TTITLE3=East Coast Love Affair
TTITLE4=Ask Me Now
TTITLE5=Ana Maria
TTITLE6=More Than You Know
TTITLE7=You've Changed
EXTD=YEAR: 2009
EXTT0=
EXTT1=
EXTT2=
EXTT3=
EXTT4=
EXTT5=
EXTT6=
EXTT7=
PLAYORDER=
